<svg aria-hidden="true" focusable="false" data-prefix="fad" data-icon="sliders-v-square" class="svg-inline--fa fa-sliders-v-square fa-w-14" role="img" xmlns="http://www.w3.org/2000/svg" viewBox="0 0 448 512"><g class="fa-group"><path class="fa-secondary" fill="currentColor" d="M400 32H48A48 48 0 0 0 0 80v352a48 48 0 0 0 48 48h352a48 48 0 0 0 48-48V80a48 48 0 0 0-48-48zM200 224h-24v180a12 12 0 0 1-12 12h-40a12 12 0 0 1-12-12V224H88a23.94 23.94 0 0 1-24-24v-16a23.94 23.94 0 0 1 24-24h24v-52a12 12 0 0 1 12-12h40a12 12 0 0 1 12 12v52h24a23.94 23.94 0 0 1 24 24v16a23.94 23.94 0 0 1-24 24zm184 104a23.94 23.94 0 0 1-24 24h-24v52a12 12 0 0 1-12 12h-40a12 12 0 0 1-12-12v-52h-24a23.94 23.94 0 0 1-24-24v-16a23.94 23.94 0 0 1 24-24h24V108a12 12 0 0 1 12-12h40a12 12 0 0 1 12 12v180h24a23.94 23.94 0 0 1 24 24z" opacity="0.4"></path><path class="fa-primary" fill="currentColor" d="M224 184a23.94 23.94 0 0 0-24-24H88a23.94 23.94 0 0 0-24 24v16a23.94 23.94 0 0 0 24 24h112a23.94 23.94 0 0 0 24-24zm136 104H248a23.94 23.94 0 0 0-24 24v16a23.94 23.94 0 0 0 24 24h112a23.94 23.94 0 0 0 24-24v-16a23.94 23.94 0 0 0-24-24z"></path></g></svg>